<?xml version="1.0" encoding="UTF-8" standalone="no"?>
<!DOCTYPE svg PUBLIC "-//W3C//DTD SVG 1.1//EN" "http://www.w3.org/Graphics/SVG/1.1/DTD/svg11.dtd">
<svg width="100%" height="100%" viewBox="0 0 1500 100" version="1.1" xmlns="http://www.w3.org/2000/svg" xmlns:xlink="http://www.w3.org/1999/xlink" xml:space="preserve" xmlns:serif="http://www.serif.com/" style="fill-rule:evenodd;clip-rule:evenodd;stroke-linejoin:round;stroke-miterlimit:2;">
    <g transform="matrix(1,0,-0.267949,1,-15.6552,-57.6057)">
        <g transform="matrix(100,0,0,100,77.3862,135.806)">
            <path d="M0.379,-0.7L0.092,-0.7L0.092,-0L0.376,-0C0.588,-0 0.741,-0.148 0.741,-0.35C0.741,-0.553 0.589,-0.7 0.379,-0.7ZM0.382,-0.106L0.21,-0.106L0.21,-0.594L0.377,-0.594C0.515,-0.594 0.622,-0.492 0.622,-0.349C0.622,-0.207 0.518,-0.106 0.382,-0.106Z" style="fill:white;fill-rule:nonzero;"/>
        </g>
        <g transform="matrix(100,0,0,100,154.886,135.806)">
            <path d="M0.517,-0L0.516,-0.349C0.515,-0.466 0.438,-0.536 0.301,-0.536C0.2,-0.536 0.146,-0.513 0.072,-0.469L0.119,-0.389C0.172,-0.425 0.225,-0.443 0.276,-0.443C0.36,-0.443 0.403,-0.403 0.403,-0.336L0.403,-0.32L0.242,-0.32C0.114,-0.319 0.041,-0.257 0.041,-0.16C0.041,-0.066 0.113,0.005 0.228,0.005C0.305,0.005 0.366,-0.018 0.404,-0.065L0.404,-0L0.517,-0ZM0.252,-0.086C0.188,-0.086 0.149,-0.117 0.149,-0.165C0.149,-0.216 0.184,-0.236 0.259,-0.236L0.403,-0.236L0.403,-0.187C0.397,-0.129 0.334,-0.086 0.252,-0.086Z" style="fill:white;fill-rule:nonzero;"/>
        </g>
        <g transform="matrix(100,0,0,100,213.486,135.806)">
            <path d="M0.357,-0.122C0.326,-0.107 0.301,-0.099 0.277,-0.099C0.241,-0.099 0.22,-0.116 0.22,-0.171L0.22,-0.426L0.377,-0.426L0.377,-0.512L0.22,-0.512L0.22,-0.658L0.106,-0.658L0.106,-0.512L0.031,-0.512L0.031,-0.426L0.106,-0.426L0.106,-0.15C0.106,-0.041 0.175,0.005 0.255,0.005C0.3,0.005 0.344,-0.009 0.386,-0.034L0.357,-0.122Z" style="fill:white;fill-rule:nonzero;"/>
        </g>
        <g transform="matrix(100,0,0,100,254.186,135.806)">
            <path d="M0.517,-0L0.516,-0.349C0.515,-0.466 0.438,-0.536 0.301,-0.536C0.2,-0.536 0.146,-0.513 0.072,-0.469L0.119,-0.389C0.172,-0.425 0.225,-0.443 0.276,-0.443C0.36,-0.443 0.403,-0.403 0.403,-0.336L0.403,-0.32L0.242,-0.32C0.114,-0.319 0.041,-0.257 0.041,-0.16C0.041,-0.066 0.113,0.005 0.228,0.005C0.305,0.005 0.366,-0.018 0.404,-0.065L0.404,-0L0.517,-0ZM0.252,-0.086C0.188,-0.086 0.149,-0.117 0.149,-0.165C0.149,-0.216 0.184,-0.236 0.259,-0.236L0.403,-0.236L0.403,-0.187C0.397,-0.129 0.334,-0.086 0.252,-0.086Z" style="fill:white;fill-rule:nonzero;"/>
        </g>
        <g transform="matrix(100,0,0,100,342.786,135.806)">
            <path d="M0.599,-0.509L0.668,-0.595C0.6,-0.662 0.501,-0.703 0.402,-0.703C0.195,-0.703 0.034,-0.55 0.034,-0.351C0.034,-0.15 0.193,0.005 0.398,0.005C0.497,0.005 0.598,-0.04 0.669,-0.11L0.599,-0.188C0.546,-0.137 0.474,-0.105 0.404,-0.105C0.264,-0.105 0.154,-0.214 0.154,-0.352C0.154,-0.49 0.264,-0.598 0.404,-0.598C0.475,-0.598 0.548,-0.564 0.599,-0.509Z" style="fill:white;fill-rule:nonzero;"/>
        </g>
        <g transform="matrix(100,0,0,100,410.986,135.806)">
            <path d="M0.304,-0.536C0.146,-0.535 0.035,-0.426 0.035,-0.265C0.035,-0.105 0.143,0.004 0.307,0.004C0.399,0.004 0.475,-0.029 0.527,-0.086L0.466,-0.151C0.427,-0.111 0.374,-0.089 0.316,-0.089C0.232,-0.089 0.169,-0.14 0.151,-0.222L0.553,-0.222C0.567,-0.414 0.491,-0.536 0.304,-0.536ZM0.149,-0.306C0.161,-0.391 0.221,-0.444 0.305,-0.444C0.392,-0.444 0.449,-0.392 0.453,-0.306L0.149,-0.306Z" style="fill:white;fill-rule:nonzero;"/>
        </g>
        <g transform="matrix(100,0,0,100,469.786,135.806)">
            <path d="M0.396,-0.536C0.306,-0.536 0.238,-0.504 0.2,-0.43L0.2,-0.532L0.085,-0.532L0.085,-0L0.2,-0L0.2,-0.283C0.208,-0.366 0.263,-0.427 0.351,-0.428C0.431,-0.428 0.479,-0.379 0.479,-0.299L0.479,-0L0.594,-0L0.594,-0.331C0.594,-0.458 0.52,-0.536 0.396,-0.536Z" style="fill:white;fill-rule:nonzero;"/>
        </g>
        <g transform="matrix(100,0,0,100,536.086,135.806)">
            <path d="M0.357,-0.122C0.326,-0.107 0.301,-0.099 0.277,-0.099C0.241,-0.099 0.22,-0.116 0.22,-0.171L0.22,-0.426L0.377,-0.426L0.377,-0.512L0.22,-0.512L0.22,-0.658L0.106,-0.658L0.106,-0.512L0.031,-0.512L0.031,-0.426L0.106,-0.426L0.106,-0.15C0.106,-0.041 0.175,0.005 0.255,0.005C0.3,0.005 0.344,-0.009 0.386,-0.034L0.357,-0.122Z" style="fill:white;fill-rule:nonzero;"/>
        </g>
        <g transform="matrix(100,0,0,100,576.186,135.806)">
            <path d="M0.304,-0.536C0.146,-0.535 0.035,-0.426 0.035,-0.265C0.035,-0.105 0.143,0.004 0.307,0.004C0.399,0.004 0.475,-0.029 0.527,-0.086L0.466,-0.151C0.427,-0.111 0.374,-0.089 0.316,-0.089C0.232,-0.089 0.169,-0.14 0.151,-0.222L0.553,-0.222C0.567,-0.414 0.491,-0.536 0.304,-0.536ZM0.149,-0.306C0.161,-0.391 0.221,-0.444 0.305,-0.444C0.392,-0.444 0.449,-0.392 0.453,-0.306L0.149,-0.306Z" style="fill:white;fill-rule:nonzero;"/>
        </g>
        <g transform="matrix(100,0,0,100,634.986,135.806)">
            <path d="M0.2,-0.426L0.2,-0.532L0.085,-0.532L0.085,-0L0.2,-0L0.2,-0.278C0.209,-0.369 0.277,-0.432 0.384,-0.426L0.384,-0.536C0.3,-0.536 0.236,-0.498 0.2,-0.426Z" style="fill:white;fill-rule:nonzero;"/>
        </g>
        <g transform="matrix(100,0,0,100,704.386,135.806)">
            <path d="M0.092,-0.7L0.092,-0L0.604,-0L0.604,-0.106L0.21,-0.106L0.21,-0.299L0.552,-0.299L0.552,-0.404L0.21,-0.404L0.21,-0.594L0.592,-0.594L0.592,-0.7L0.092,-0.7Z" style="fill:white;fill-rule:nonzero;"/>
        </g>
        <g transform="matrix(100,0,0,100,769.986,135.806)">
            <path d="M0.396,-0.536C0.306,-0.536 0.238,-0.504 0.2,-0.43L0.2,-0.532L0.085,-0.532L0.085,-0L0.2,-0L0.2,-0.283C0.208,-0.366 0.263,-0.427 0.351,-0.428C0.431,-0.428 0.479,-0.379 0.479,-0.299L0.479,-0L0.594,-0L0.594,-0.331C0.594,-0.458 0.52,-0.536 0.396,-0.536Z" style="fill:white;fill-rule:nonzero;"/>
        </g>
        <g transform="matrix(100,0,0,100,836.286,135.806)">
            <path d="M0.304,-0.536C0.146,-0.535 0.035,-0.426 0.035,-0.265C0.035,-0.105 0.143,0.004 0.307,0.004C0.399,0.004 0.475,-0.029 0.527,-0.086L0.466,-0.151C0.427,-0.111 0.374,-0.089 0.316,-0.089C0.232,-0.089 0.169,-0.14 0.151,-0.222L0.553,-0.222C0.567,-0.414 0.491,-0.536 0.304,-0.536ZM0.149,-0.306C0.161,-0.391 0.221,-0.444 0.305,-0.444C0.392,-0.444 0.449,-0.392 0.453,-0.306L0.149,-0.306Z" style="fill:white;fill-rule:nonzero;"/>
        </g>
        <g transform="matrix(100,0,0,100,895.086,135.806)">
            <path d="M0.2,-0.426L0.2,-0.532L0.085,-0.532L0.085,-0L0.2,-0L0.2,-0.278C0.209,-0.369 0.277,-0.432 0.384,-0.426L0.384,-0.536C0.3,-0.536 0.236,-0.498 0.2,-0.426Z" style="fill:white;fill-rule:nonzero;"/>
        </g>
        <g transform="matrix(100,0,0,100,934.486,135.806)">
            <path d="M0.451,-0.532L0.451,-0.446C0.414,-0.504 0.353,-0.537 0.271,-0.536C0.13,-0.535 0.035,-0.433 0.035,-0.283C0.035,-0.13 0.131,-0.026 0.275,-0.026C0.355,-0.026 0.415,-0.058 0.451,-0.116L0.451,-0.049C0.451,0.043 0.385,0.102 0.284,0.102C0.219,0.102 0.167,0.081 0.117,0.044L0.068,0.127C0.133,0.171 0.206,0.197 0.289,0.197C0.456,0.197 0.565,0.101 0.565,-0.052L0.565,-0.532L0.451,-0.532ZM0.298,-0.116C0.206,-0.116 0.144,-0.184 0.143,-0.28C0.144,-0.375 0.207,-0.443 0.298,-0.443C0.388,-0.443 0.451,-0.376 0.451,-0.28C0.451,-0.184 0.388,-0.116 0.298,-0.116Z" style="fill:white;fill-rule:nonzero;"/>
        </g>
        <g transform="matrix(100,0,0,100,998.486,135.806)">
            <path d="M0.294,0.073L0.536,-0.532L0.421,-0.532L0.273,-0.129L0.114,-0.532L-0.005,-0.532L0.215,-0.008L0.197,0.032C0.179,0.072 0.151,0.091 0.116,0.091C0.092,0.091 0.072,0.083 0.047,0.065L-0.002,0.154C0.035,0.185 0.073,0.199 0.121,0.199C0.201,0.199 0.261,0.157 0.294,0.073Z" style="fill:white;fill-rule:nonzero;"/>
        </g>
        <g transform="matrix(100,0,0,100,1081.59,135.806)">
            <path d="M0.092,-0.7L0.092,-0L0.203,-0L0.203,-0.523L0.424,-0.073L0.501,-0.073L0.722,-0.523L0.723,-0L0.832,-0L0.832,-0.7L0.693,-0.7L0.463,-0.235L0.232,-0.7L0.092,-0.7Z" style="fill:white;fill-rule:nonzero;"/>
        </g>
        <g transform="matrix(100,0,0,100,1174.09,135.806)">
            <path d="M0.313,-0.536C0.148,-0.536 0.035,-0.427 0.035,-0.267C0.035,-0.106 0.148,0.004 0.313,0.004C0.477,0.004 0.59,-0.106 0.59,-0.267C0.59,-0.427 0.477,-0.536 0.313,-0.536ZM0.313,-0.438C0.408,-0.438 0.475,-0.367 0.475,-0.265C0.475,-0.162 0.408,-0.092 0.313,-0.092C0.217,-0.092 0.15,-0.162 0.15,-0.265C0.15,-0.367 0.217,-0.438 0.313,-0.438Z" style="fill:white;fill-rule:nonzero;"/>
        </g>
        <g transform="matrix(100,0,0,100,1236.59,135.806)">
            <path d="M0.396,-0.536C0.306,-0.536 0.238,-0.504 0.2,-0.43L0.2,-0.532L0.085,-0.532L0.085,-0L0.2,-0L0.2,-0.283C0.208,-0.366 0.263,-0.427 0.351,-0.428C0.431,-0.428 0.479,-0.379 0.479,-0.299L0.479,-0L0.594,-0L0.594,-0.331C0.594,-0.458 0.52,-0.536 0.396,-0.536Z" style="fill:white;fill-rule:nonzero;"/>
        </g>
        <g transform="matrix(100,0,0,100,1302.89,135.806)">
            <path d="M0.142,-0.753C0.104,-0.753 0.075,-0.724 0.075,-0.684C0.075,-0.645 0.104,-0.616 0.142,-0.616C0.18,-0.616 0.209,-0.645 0.209,-0.684C0.209,-0.724 0.18,-0.753 0.142,-0.753ZM0.085,-0.532L0.085,-0L0.199,-0L0.199,-0.532L0.085,-0.532Z" style="fill:white;fill-rule:nonzero;"/>
        </g>
        <g transform="matrix(100,0,0,100,1331.29,135.806)">
            <path d="M0.357,-0.122C0.326,-0.107 0.301,-0.099 0.277,-0.099C0.241,-0.099 0.22,-0.116 0.22,-0.171L0.22,-0.426L0.377,-0.426L0.377,-0.512L0.22,-0.512L0.22,-0.658L0.106,-0.658L0.106,-0.512L0.031,-0.512L0.031,-0.426L0.106,-0.426L0.106,-0.15C0.106,-0.041 0.175,0.005 0.255,0.005C0.3,0.005 0.344,-0.009 0.386,-0.034L0.357,-0.122Z" style="fill:white;fill-rule:nonzero;"/>
        </g>
        <g transform="matrix(100,0,0,100,1371.39,135.806)">
            <path d="M0.313,-0.536C0.148,-0.536 0.035,-0.427 0.035,-0.267C0.035,-0.106 0.148,0.004 0.313,0.004C0.477,0.004 0.59,-0.106 0.59,-0.267C0.59,-0.427 0.477,-0.536 0.313,-0.536ZM0.313,-0.438C0.408,-0.438 0.475,-0.367 0.475,-0.265C0.475,-0.162 0.408,-0.092 0.313,-0.092C0.217,-0.092 0.15,-0.162 0.15,-0.265C0.15,-0.367 0.217,-0.438 0.313,-0.438Z" style="fill:white;fill-rule:nonzero;"/>
        </g>
        <g transform="matrix(100,0,0,100,1433.89,135.806)">
            <path d="M0.2,-0.426L0.2,-0.532L0.085,-0.532L0.085,-0L0.2,-0L0.2,-0.278C0.209,-0.369 0.277,-0.432 0.384,-0.426L0.384,-0.536C0.3,-0.536 0.236,-0.498 0.2,-0.426Z" style="fill:white;fill-rule:nonzero;"/>
        </g>
    </g>
    <g transform="matrix(1.01636,0,0,0.812678,0.152538,0.0678934)">
        <rect x="0.426" y="0.362" width="3.427" height="99.942" style="fill:white;"/>
    </g>
</svg>
