<?xml version="1.0" encoding="UTF-8" standalone="no"?>
<!DOCTYPE svg PUBLIC "-//W3C//DTD SVG 1.1//EN" "http://www.w3.org/Graphics/SVG/1.1/DTD/svg11.dtd">
<svg width="100%" height="100%" viewBox="0 0 2830 417" version="1.1" xmlns="http://www.w3.org/2000/svg" xmlns:xlink="http://www.w3.org/1999/xlink" xml:space="preserve" xmlns:serif="http://www.serif.com/" style="fill-rule:evenodd;clip-rule:evenodd;stroke-linejoin:round;stroke-miterlimit:2;">
    <g transform="matrix(4.16667,0,0,4.16667,-43.5,0)">
        <g transform="matrix(1,0,-0.267949,1,65.7635,-61.6057)">
            <g transform="matrix(100,0,0,100,77.3862,139.383)">
                <path d="M0.111,-0.556L0.111,-0L0,-0L0,-0.778L0.111,-0.778L0.111,-0.667L0.222,-0.667L0.222,-0.556L0.111,-0.556ZM0.667,-0.556L0.556,-0.556L0.556,-0.667L0.667,-0.667L0.667,-0.778L0.778,-0.778L0.778,-0L0.667,-0L0.667,-0.556ZM0.556,-0.444L0.444,-0.444L0.444,-0.556L0.556,-0.556L0.556,-0.444ZM0.444,-0.333L0.333,-0.333L0.333,-0.444L0.444,-0.444L0.444,-0.333ZM0.333,-0.444L0.222,-0.444L0.222,-0.556L0.333,-0.556L0.333,-0.444Z" style="fill:white;fill-rule:nonzero;"/>
            </g>
            <g transform="matrix(100,0,0,100,166.275,139.383)">
                <path d="M0.111,-0.111L0,-0.111L0,-0.444L0.111,-0.444L0.111,-0.111ZM0.444,-0.444L0.111,-0.444L0.111,-0.556L0.444,-0.556L0.444,-0.444ZM0.556,-0.111L0.444,-0.111L0.444,-0.444L0.556,-0.444L0.556,-0.111ZM0.444,-0L0.111,-0L0.111,-0.111L0.444,-0.111L0.444,-0Z" style="fill:white;fill-rule:nonzero;"/>
            </g>
            <g transform="matrix(100,0,0,100,232.942,139.383)">
                <path d="M0.333,-0L0.222,-0L0.222,-0.111L0.333,-0.111L0.333,-0ZM0.222,-0.111L0.111,-0.111L0.111,-0.222L0.222,-0.222L0.222,-0.111ZM0.444,-0.111L0.333,-0.111L0.333,-0.222L0.444,-0.222L0.444,-0.111ZM0.111,-0.222L0,-0.222L0,-0.556L0.111,-0.556L0.111,-0.222ZM0.556,-0.222L0.444,-0.222L0.444,-0.556L0.556,-0.556L0.556,-0.222Z" style="fill:white;fill-rule:nonzero;"/>
            </g>
            <g transform="matrix(100,0,0,100,299.608,139.383)">
                <path d="M0.111,-0L0,-0L0,-0.556L0.111,-0.556L0.111,-0ZM0.111,-0.667L0,-0.667L0,-0.778L0.111,-0.778L0.111,-0.667Z" style="fill:white;fill-rule:nonzero;"/>
            </g>
            <g transform="matrix(100,0,0,100,321.831,139.383)">
                <path d="M0.111,-0.333L0.111,-0L0,-0L0,-0.556L0.111,-0.556L0.111,-0.444L0.222,-0.444L0.222,-0.333L0.111,-0.333ZM0.556,-0L0.444,-0L0.444,-0.444L0.556,-0.444L0.556,-0ZM0.444,-0.444L0.222,-0.444L0.222,-0.556L0.444,-0.556L0.444,-0.444Z" style="fill:white;fill-rule:nonzero;"/>
            </g>
            <g transform="matrix(100,0,0,100,388.497,139.383)">
                <path d="M0.111,-0.111L0,-0.111L0,-0.444L0.111,-0.444L0.111,-0.111ZM0.444,-0.111L0.333,-0.111L0.333,-0.222L0.444,-0.222L0.444,-0.333L0.333,-0.333L0.333,-0.444L0.444,-0.444L0.444,-0.556L0.556,-0.556L0.556,0.111L0.444,0.111L0.444,-0.111ZM0.333,-0.444L0.111,-0.444L0.111,-0.556L0.333,-0.556L0.333,-0.444ZM0.333,-0L0.111,-0L0.111,-0.111L0.333,-0.111L0.333,-0ZM0.444,0.222L0.111,0.222L0.111,0.111L0.444,0.111L0.444,0.222Z" style="fill:white;fill-rule:nonzero;"/>
            </g>
            <g transform="matrix(100,0,0,100,455.164,139.383)">
                <path d="M0.111,-0.111L0.444,-0.111L0.444,-0L0,-0L0,-0.778L0.444,-0.778L0.444,-0.667L0.111,-0.667L0.111,-0.444L0.444,-0.444L0.444,-0.333L0.111,-0.333L0.111,-0.111ZM0.556,-0.111L0.444,-0.111L0.444,-0.333L0.556,-0.333L0.556,-0.111ZM0.556,-0.444L0.444,-0.444L0.444,-0.667L0.556,-0.667L0.556,-0.444Z" style="fill:white;fill-rule:nonzero;"/>
            </g>
            <g transform="matrix(100,0,0,100,521.831,139.383)">
                <path d="M0.111,-0L0,-0L0,-0.556L0.111,-0.556L0.111,-0ZM0.111,-0.667L0,-0.667L0,-0.778L0.111,-0.778L0.111,-0.667Z" style="fill:white;fill-rule:nonzero;"/>
            </g>
            <g transform="matrix(100,0,0,100,544.053,139.383)">
                <path d="M0.222,-0.556L0.333,-0.556L0.333,-0.444L0.222,-0.444L0.222,-0.111L0.333,-0.111L0.333,-0L0.111,-0L0.111,-0.444L0,-0.444L0,-0.556L0.111,-0.556L0.111,-0.778L0.222,-0.778L0.222,-0.556Z" style="fill:white;fill-rule:nonzero;"/>
            </g>
            <g transform="matrix(100,0,0,100,588.497,139.383)">
                <path d="M0.444,-0L0,-0L0,-0.111L0.444,-0.111L0.444,-0ZM0.556,-0.111L0.444,-0.111L0.444,-0.222L0.556,-0.222L0.556,-0.111ZM0.444,-0.222L0.111,-0.222L0.111,-0.333L0.444,-0.333L0.444,-0.222ZM0.111,-0.333L0,-0.333L0,-0.444L0.111,-0.444L0.111,-0.333ZM0.556,-0.444L0.111,-0.444L0.111,-0.556L0.556,-0.556L0.556,-0.444Z" style="fill:white;fill-rule:nonzero;"/>
            </g>
        </g>
        <g transform="matrix(0.817765,-0.60523,0.639928,0.864648,-238.592,-311.132)">
            <path d="M85.736,420.991L94.884,427.289L86.206,433.814L76.629,427.26L85.736,420.991Z" style="fill:rgb(0,103,193);"/>
        </g>
        <g transform="matrix(0.817765,-0.60523,0.639928,0.864648,-242.244,-298.407)">
            <path d="M85.736,420.991L94.884,427.289L86.206,433.814L76.629,427.26L85.736,420.991Z" style="fill:white;"/>
        </g>
        <g transform="matrix(0.817765,-0.60523,0.639928,0.864648,-245.777,-285.353)">
            <path d="M85.736,420.991L94.884,427.289L86.206,433.814L76.629,427.26L85.736,420.991Z" style="fill:rgb(45,154,230);"/>
        </g>
        <g transform="matrix(0.817765,-0.60523,0.639928,0.864648,-249.286,-272.251)">
            <path d="M85.736,420.991L94.884,427.289L86.206,433.814L76.629,427.26L85.736,420.991Z" style="fill:white;"/>
        </g>
        <g transform="matrix(0.817765,-0.60523,0.639928,0.864648,-252.93,-259.146)">
            <path d="M85.736,420.991L94.884,427.289L86.206,433.814L76.629,427.26L85.736,420.991Z" style="fill:rgb(116,207,247);"/>
        </g>
        <g transform="matrix(0.817765,-0.60523,0.639928,0.864648,-256.43,-246.133)">
            <path d="M85.736,420.991L94.884,427.289L86.206,433.814L76.629,427.26L85.736,420.991Z" style="fill:white;"/>
        </g>
        <g transform="matrix(0.817765,-0.60523,0.639928,0.864648,-257.579,-298.156)">
            <path d="M85.736,421.737L93.831,427.31L86.188,433.057L77.715,427.258L85.736,421.737Z" style="fill:white;"/>
        </g>
        <g transform="matrix(0.817765,-0.60523,0.639928,0.864648,-261.113,-285.102)">
            <path d="M85.736,421.986L93.481,427.317L86.182,432.805L78.076,427.258L85.736,421.986Z" style="fill:rgb(45,154,230);"/>
        </g>
        <g transform="matrix(0.817765,-0.60523,0.639928,0.864648,-264.621,-272)">
            <path d="M85.736,421.737L93.831,427.31L86.188,433.057L77.715,427.258L85.736,421.737Z" style="fill:white;"/>
        </g>
        <g transform="matrix(0.817765,-0.60523,0.639928,0.864648,-268.265,-258.895)">
            <path d="M85.736,421.737L93.831,427.31L86.188,433.057L77.715,427.258L85.736,421.737Z" style="fill:rgb(116,207,247);"/>
        </g>
        <g transform="matrix(0.817765,-0.60523,0.639928,0.864648,-271.766,-245.882)">
            <path d="M85.736,421.737L93.831,427.31L86.188,433.057L77.715,427.258L85.736,421.737Z" style="fill:white;"/>
        </g>
        <g transform="matrix(0.817765,-0.60523,0.639928,0.864648,-276.393,-284.833)">
            <path d="M85.736,423.602L91.2,427.363L86.143,431.165L80.429,427.255L85.736,423.602Z" style="fill:rgb(45,154,230);"/>
        </g>
        <g transform="matrix(0.817765,-0.60523,0.639928,0.864648,-279.901,-271.731)">
            <path d="M85.736,423.602L91.2,427.363L86.143,431.165L80.429,427.255L85.736,423.602Z" style="fill:white;"/>
        </g>
        <g transform="matrix(0.817765,-0.60523,0.639928,0.864648,-283.545,-258.626)">
            <path d="M85.736,423.602L91.2,427.363L86.143,431.165L80.429,427.255L85.736,423.602Z" style="fill:rgb(116,207,247);"/>
        </g>
        <g transform="matrix(0.817765,-0.60523,0.639928,0.864648,-287.046,-245.613)">
            <path d="M85.736,423.602L91.2,427.363L86.143,431.165L80.429,427.255L85.736,423.602Z" style="fill:white;"/>
        </g>
        <g transform="matrix(0.817765,-0.60523,0.639928,0.864648,-294.992,-271.534)">
            <path d="M85.736,424.099L90.498,427.377L86.131,430.661L81.152,427.254L85.736,424.099Z" style="fill:white;"/>
        </g>
        <g transform="matrix(0.817765,-0.60523,0.639928,0.864648,-298.635,-258.429)">
            <path d="M85.736,424.099L90.498,427.377L86.131,430.661L81.152,427.254L85.736,424.099Z" style="fill:rgb(116,207,247);"/>
        </g>
        <g transform="matrix(0.817765,-0.60523,0.639928,0.864648,-302.136,-245.415)">
            <path d="M85.736,424.099L90.498,427.377L86.131,430.661L81.152,427.254L85.736,424.099Z" style="fill:white;"/>
        </g>
        <g transform="matrix(0.817765,-0.60523,0.639928,0.864648,-313.049,-258.279)">
            <path d="M85.736,425.342L88.743,427.412L86.1,429.399L82.961,427.251L85.736,425.342Z" style="fill:rgb(116,207,247);"/>
        </g>
        <g transform="matrix(0.817765,-0.60523,0.639928,0.864648,-316.55,-245.266)">
            <path d="M85.736,425.342L88.743,427.412L86.1,429.399L82.961,427.251L85.736,425.342Z" style="fill:white;"/>
        </g>
        <g transform="matrix(0.817765,-0.60523,0.639928,0.864648,-330.378,-245.31)">
            <path d="M85.736,425.59L88.392,427.419L86.094,429.147L83.323,427.251L85.736,425.59Z" style="fill:white;"/>
        </g>
    </g>
</svg>
